<svg xmlns="http://www.w3.org/2000/svg" xmlns:xlink="http://www.w3.org/1999/xlink" width="32" height="32" viewBox="0 0 32 32">
  <defs>
    <clipPath id="clip-Alarm">
      <rect width="32" height="32"/>
    </clipPath>
  </defs>
  <g id="Alarm" clip-path="url(#clip-Alarm)">
    <g id="Group_4" data-name="Group 4" transform="translate(0 1.264)">
      <path id="Polygon_1" data-name="Polygon 1" d="M16,0,32,27H0Z" transform="translate(0 0.736)" fill="#fff"/>
      <path id="Subtraction_1" data-name="Subtraction 1" d="M32,27H0L16,0,32,27ZM16,4.725,4,24.75H28Z" transform="translate(0 0.736)"/>
    </g>
    <path id="Path_52" data-name="Path 52" d="M5.192,3.4l-.815-.815A5.94,5.94,0,0,0,2.03,7.058H3.17A4.812,4.812,0,0,1,5.192,3.4Zm7.059,3.658h1.14a5.976,5.976,0,0,0-2.347-4.473l-.809.815A4.84,4.84,0,0,1,12.251,7.058Zm-1.122.285a3.471,3.471,0,0,0-2.564-3.6V3.355a.855.855,0,1,0-1.709,0v.387a3.461,3.461,0,0,0-2.564,3.6v2.849l-1.14,1.14v.57h9.116v-.57l-1.14-1.14ZM7.71,13.61a1,1,0,0,0,.228-.023,1.156,1.156,0,0,0,.82-.672,1.144,1.144,0,0,0,.085-.444H6.565A1.148,1.148,0,0,0,7.71,13.61Z" transform="translate(8.29 12.39)"/>
  </g>
</svg>
