<svg xmlns="http://www.w3.org/2000/svg" xmlns:xlink="http://www.w3.org/1999/xlink" width="32" height="32" viewBox="0 0 32 32">
  <defs>
    <clipPath id="clip-Emergency_Warning">
      <rect width="32" height="32"/>
    </clipPath>
  </defs>
  <g id="Emergency_Warning" data-name="Emergency Warning" clip-path="url(#clip-Emergency_Warning)">
    <g id="Group_3" data-name="Group 3" transform="translate(0 2.298)">
      <path id="Polygon_1" data-name="Polygon 1" d="M16,0,32,27H0Z" transform="translate(0 -0.298)" fill="#ea0007"/>
      <path id="Subtraction_1" data-name="Subtraction 1" d="M32,27H0L16,0,32,27ZM16,4.725,4,24.75H28Z" transform="translate(0 -0.298)"/>
    </g>
    <path id="Path_8" data-name="Path 8" d="M88.72,110.229s2.81,1.181,1.385,5.686a3.288,3.288,0,0,0,1.6-3.318,4.672,4.672,0,0,1,1.779,3.582s.586-.362.4-1.422a2.189,2.189,0,0,1,.68,1.538s.812,4.675-3.857,5.925a4.818,4.818,0,0,0-.645-2.689,2.074,2.074,0,0,1-.068-2.111s-2.729.665-2.058,3.171l.58,1.56a6.626,6.626,0,0,1-3.732-2.816,4.038,4.038,0,0,1,.383-4.689c1.308-1.5,1.027-1.987.915-2.766a2.124,2.124,0,0,1,1.067,1.693S88.769,113.064,88.72,110.229Z" transform="translate(-73.414 -96.729)" fill="#fff"/>
  </g>
</svg>
