<svg xmlns="http://www.w3.org/2000/svg" xmlns:xlink="http://www.w3.org/1999/xlink" width="32" height="32" viewBox="0 0 32 32">
  <defs>
    <clipPath id="clip-Medical">
      <rect width="32" height="32"/>
    </clipPath>
  </defs>
  <g id="Medical" clip-path="url(#clip-Medical)">
    <g id="Group_4" data-name="Group 4" transform="translate(0 1.264)">
      <path id="Polygon_1" data-name="Polygon 1" d="M16,0,32,27H0Z" transform="translate(0 0.736)" fill="#fff"/>
      <path id="Subtraction_1" data-name="Subtraction 1" d="M32,27H0L16,0,32,27ZM16,4.725,4,24.75H28Z" transform="translate(0 0.736)"/>
    </g>
    <g id="Path_22" data-name="Path 22" transform="translate(5.212 9.5)">
      <path d="M 12.25854873657227 15.45031833648682 L 9.316768646240234 15.45031833648682 L 9.316768646240234 12.38354873657227 L 9.316768646240234 12.25854873657227 L 9.191768646240234 12.25854873657227 L 6.124998569488525 12.25854873657227 L 6.124998569488525 9.316768646240234 L 9.191768646240234 9.316768646240234 L 9.316768646240234 9.316768646240234 L 9.316768646240234 9.191768646240234 L 9.316768646240234 6.124998569488525 L 12.25854873657227 6.124998569488525 L 12.25854873657227 9.191768646240234 L 12.25854873657227 9.316768646240234 L 12.38354873657227 9.316768646240234 L 15.45031833648682 9.316768646240234 L 15.45031833648682 12.25854873657227 L 12.38354873657227 12.25854873657227 L 12.25854873657227 12.25854873657227 L 12.25854873657227 12.38354873657227 L 12.25854873657227 15.45031833648682 Z" stroke="none"/>
      <path d="M 12.13354873657227 15.32531833648682 L 12.13354873657227 12.38354873657227 L 12.13354873657227 12.13354873657227 L 12.38354873657227 12.13354873657227 L 15.32531833648682 12.13354873657227 L 15.32531833648682 9.441768646240234 L 12.38354873657227 9.441768646240234 L 12.13354873657227 9.441768646240234 L 12.13354873657227 9.191768646240234 L 12.13354873657227 6.249998569488525 L 9.441768646240234 6.249998569488525 L 9.441768646240234 9.191768646240234 L 9.441768646240234 9.441768646240234 L 9.191768646240234 9.441768646240234 L 6.249998569488525 9.441768646240234 L 6.249998569488525 12.13354873657227 L 9.191768646240234 12.13354873657227 L 9.441768646240234 12.13354873657227 L 9.441768646240234 12.38354873657227 L 9.441768646240234 15.32531833648682 L 12.13354873657227 15.32531833648682 M 12.38354873657227 15.57531833648682 L 9.191768646240234 15.57531833648682 L 9.191768646240234 12.38354873657227 L 5.999998569488525 12.38354873657227 L 5.999998569488525 9.191768646240234 L 9.191768646240234 9.191768646240234 L 9.191768646240234 5.999998569488525 L 12.38354873657227 5.999998569488525 L 12.38354873657227 9.191768646240234 L 15.57531833648682 9.191768646240234 L 15.57531833648682 12.38354873657227 L 12.38354873657227 12.38354873657227 L 12.38354873657227 15.57531833648682 Z" stroke="none" fill="#fff"/>
    </g>
  </g>
</svg>
