<svg xmlns="http://www.w3.org/2000/svg" xmlns:xlink="http://www.w3.org/1999/xlink" width="32" height="32" viewBox="0 0 32 32">
  <defs>
    <clipPath id="clip-Rescue">
      <rect width="32" height="32"/>
    </clipPath>
  </defs>
  <g id="Rescue" clip-path="url(#clip-Rescue)">
    <g id="Group_4" data-name="Group 4" transform="translate(0 1.264)">
      <path id="Polygon_1" data-name="Polygon 1" d="M16,0,32,27H0Z" transform="translate(0 0.736)" fill="#fff"/>
      <path id="Subtraction_1" data-name="Subtraction 1" d="M32,27H0L16,0,32,27ZM16,4.725,4,24.75H28Z" transform="translate(0 0.736)"/>
    </g>
    <g id="Group_11" data-name="Group 11" transform="translate(16 8.686) rotate(45)">
      <path id="Path_24" data-name="Path 24" d="M8,2a6,6,0,1,0,6,6A6,6,0,0,0,8,2Zm4.476,4.272-1.668.69A2.989,2.989,0,0,0,9.038,5.2l.69-1.668A4.778,4.778,0,0,1,12.476,6.272ZM8,9.8A1.8,1.8,0,1,1,9.8,8,1.8,1.8,0,0,1,8,9.8ZM6.278,3.524l.7,1.668A3,3,0,0,0,5.192,6.974l-1.668-.7A4.791,4.791,0,0,1,6.278,3.524Zm-2.754,6.2,1.668-.69a2.981,2.981,0,0,0,1.782,1.776l-.7,1.668A4.8,4.8,0,0,1,3.524,9.722Zm6.2,2.754-.69-1.668a2.987,2.987,0,0,0,1.77-1.782l1.668.7A4.8,4.8,0,0,1,9.728,12.476Z"/>
    </g>
  </g>
</svg>
